<?xml version="1.0" encoding="utf-8"?>
<!-- Generator: Adobe Illustrator 23.0.4, SVG Export Plug-In . SVG Version: 6.00 Build 0)  -->
<svg version="1.1" xmlns="http://www.w3.org/2000/svg" xmlns:xlink="http://www.w3.org/1999/xlink" x="0px" y="0px" width="139px"
	 height="33px" viewBox="0 0 139 33" style="enable-background:new 0 0 139 33;" xml:space="preserve">
<style type="text/css">
	.st0{display:none;}
	.st1{display:inline;}
	.st2{fill:#FFFFFF;}
</style>
<g id="Next_Offer__x3E_" class="st0">
	<g class="st1">
		<path class="st2" d="M20.25,21.5l-2.73-5.75h-0.01c0,0,0.01,0.4,0.01,0.7v5.05h-1.63v-9h1.83l2.75,5.75h0.01
			c0,0-0.01-0.4-0.01-0.7V12.5h1.63v9H20.25z"/>
		<path class="st2" d="M24.15,21.5v-9h5.43v1.62H25.9v1.96h3.03v1.62H25.9v2.18h3.68v1.62H24.15z"/>
		<path class="st2" d="M36.27,21.5l-1.69-3.19L32.9,21.5h-1.99l2.71-4.74l-2.41-4.26h2l1.37,2.7l1.38-2.7h2l-2.4,4.26l2.71,4.74
			H36.27z"/>
		<path class="st2" d="M41.6,21.5v-7.32h-2.28V12.5h6.3v1.68h-2.27v7.32H41.6z"/>
		<path class="st2" d="M52.82,21.62c-1.15,0-2.28-0.61-2.75-1.76c-0.14-0.37-0.22-0.82-0.22-1.38v-2.95c0-0.56,0.07-1.01,0.22-1.38
			c0.47-1.15,1.59-1.76,2.75-1.76h0.13c1.15,0,2.27,0.62,2.73,1.76c0.16,0.37,0.23,0.82,0.23,1.38v2.95c0,0.56-0.07,1.01-0.23,1.38
			c-0.47,1.14-1.58,1.76-2.73,1.76H52.82z M52.95,19.95c0.42,0,0.86-0.18,1.08-0.64c0.1-0.2,0.13-0.5,0.13-0.86v-2.9
			c0-0.36-0.04-0.66-0.13-0.86c-0.22-0.46-0.66-0.64-1.08-0.64h-0.13c-0.43,0-0.86,0.18-1.08,0.64c-0.11,0.2-0.13,0.5-0.13,0.86v2.9
			c0,0.36,0.02,0.66,0.13,0.86c0.22,0.46,0.65,0.64,1.08,0.64H52.95z"/>
		<path class="st2" d="M57.85,21.5v-9h5.46v1.62H59.6v1.97h3.03v1.62H59.6v3.79H57.85z"/>
		<path class="st2" d="M65,21.5v-9h5.46v1.62h-3.71v1.97h3.03v1.62h-3.03v3.79H65z"/>
		<path class="st2" d="M72.15,21.5v-9h5.43v1.62h-3.68v1.96h3.03v1.62h-3.03v2.18h3.68v1.62H72.15z"/>
		<path class="st2" d="M83.73,21.5c-0.23-0.24-0.32-0.68-0.36-1.08L83.25,19c-0.07-0.85-0.48-1.17-1.39-1.17h-0.8v3.67h-1.74v-9
			h2.77c0.41,0,0.77,0.04,1.06,0.1c1.18,0.26,1.93,1.03,1.93,2.29c0,0.91-0.48,1.66-1.37,2.06v0.01c0.78,0.28,1.19,0.78,1.26,1.7
			l0.13,1.61c0.04,0.46,0.17,0.9,0.5,1.15v0.07H83.73z M82.02,16.24c0.83,0,1.28-0.47,1.28-1.13c0-0.49-0.28-0.77-0.72-0.88
			c-0.16-0.04-0.37-0.06-0.61-0.06h-0.92v2.06H82.02z"/>
		<path class="st2" d="M89.72,21.21v-1.56l3.99-1.75l-3.99-1.75v-1.56l5.53,2.58v1.46L89.72,21.21z"/>
	</g>
</g>
<g id="_x3C__Previous_Offer">
	<g>
		<path class="st2" d="M15.6,18.63v-1.46l5.53-2.58v1.56l-3.99,1.75l3.99,1.75v1.56L15.6,18.63z"/>
		<path class="st2" d="M25.86,21.5v-9h2.91c0.64,0,1.09,0.08,1.42,0.2c1.06,0.4,1.75,1.38,1.75,2.66c0,1.26-0.7,2.23-1.75,2.64
			c-0.32,0.13-0.82,0.19-1.36,0.19h-1.22v3.3H25.86z M28.76,16.54c0.44,0,0.66-0.06,0.84-0.16c0.36-0.19,0.59-0.58,0.59-1.01
			c0-0.46-0.23-0.84-0.59-1.03c-0.18-0.11-0.4-0.16-0.84-0.16h-1.15v2.35H28.76z"/>
		<path class="st2" d="M38.13,21.5c-0.23-0.24-0.32-0.68-0.36-1.08L37.65,19c-0.07-0.85-0.48-1.17-1.39-1.17h-0.8v3.67h-1.74v-9
			h2.77c0.41,0,0.77,0.04,1.06,0.1c1.18,0.26,1.93,1.03,1.93,2.29c0,0.91-0.48,1.66-1.37,2.06v0.01c0.78,0.28,1.19,0.78,1.26,1.7
			l0.13,1.61c0.04,0.46,0.17,0.9,0.5,1.15v0.07H38.13z M36.43,16.24c0.83,0,1.28-0.47,1.28-1.13c0-0.49-0.28-0.77-0.72-0.88
			c-0.16-0.04-0.37-0.06-0.61-0.06h-0.92v2.06H36.43z"/>
		<path class="st2" d="M41.65,21.5v-9h5.43v1.62H43.4v1.96h3.03v1.62H43.4v2.18h3.68v1.62H41.65z"/>
		<path class="st2" d="M50.92,21.5l-2.51-9h1.81l1.73,6.85h0.02l1.75-6.85h1.81l-2.51,9H50.92z"/>
		<path class="st2" d="M57.09,21.5v-9h1.75v9H57.09z"/>
		<path class="st2" d="M63.73,21.62c-1.15,0-2.28-0.61-2.75-1.76c-0.14-0.37-0.22-0.82-0.22-1.38v-2.95c0-0.56,0.07-1.01,0.22-1.38
			c0.47-1.15,1.59-1.76,2.75-1.76h0.13c1.15,0,2.27,0.62,2.73,1.76c0.16,0.37,0.23,0.82,0.23,1.38v2.95c0,0.56-0.07,1.01-0.23,1.38
			c-0.47,1.14-1.58,1.76-2.73,1.76H63.73z M63.87,19.95c0.42,0,0.86-0.18,1.08-0.64c0.1-0.2,0.13-0.5,0.13-0.86v-2.9
			c0-0.36-0.04-0.66-0.13-0.86c-0.22-0.46-0.66-0.64-1.08-0.64h-0.13c-0.43,0-0.86,0.18-1.08,0.64c-0.11,0.2-0.13,0.5-0.13,0.86v2.9
			c0,0.36,0.02,0.66,0.13,0.86c0.22,0.46,0.65,0.64,1.08,0.64H63.87z"/>
		<path class="st2" d="M71.67,21.62c-1.15,0-2.28-0.61-2.75-1.76c-0.14-0.37-0.22-0.82-0.22-1.38V12.5h1.75v5.95
			c0,0.36,0.02,0.66,0.13,0.86c0.22,0.46,0.65,0.64,1.08,0.64h0.13c0.42,0,0.86-0.18,1.08-0.64c0.1-0.2,0.13-0.5,0.13-0.86V12.5
			h1.75v5.97c0,0.56-0.07,1.01-0.23,1.38c-0.47,1.14-1.58,1.76-2.73,1.76H71.67z"/>
		<path class="st2" d="M80.8,15.22c0-0.72-0.42-1.22-1.25-1.22c-0.72,0-1.08,0.37-1.08,0.86c0,0.54,0.36,0.84,0.94,1.04l0.77,0.26
			c1.4,0.48,2.45,1.28,2.45,2.79c0,1.6-1.27,2.66-3,2.66c-1.98,0-3.09-1.21-3.14-2.92h1.73c0.04,0.78,0.61,1.32,1.38,1.32
			c0.73,0,1.28-0.37,1.28-1.04c0-0.6-0.55-0.95-1.18-1.18l-0.76-0.28c-1.24-0.46-2.22-1.02-2.22-2.66c0-1.57,1.3-2.48,2.9-2.48
			c1.68,0,2.97,0.85,2.89,2.83H80.8z"/>
		<path class="st2" d="M90.16,21.62c-1.15,0-2.28-0.61-2.75-1.76c-0.14-0.37-0.22-0.82-0.22-1.38v-2.95c0-0.56,0.07-1.01,0.22-1.38
			c0.47-1.15,1.59-1.76,2.75-1.76h0.13c1.15,0,2.27,0.62,2.73,1.76c0.16,0.37,0.23,0.82,0.23,1.38v2.95c0,0.56-0.07,1.01-0.23,1.38
			c-0.47,1.14-1.58,1.76-2.73,1.76H90.16z M90.3,19.95c0.42,0,0.86-0.18,1.08-0.64c0.1-0.2,0.13-0.5,0.13-0.86v-2.9
			c0-0.36-0.04-0.66-0.13-0.86c-0.22-0.46-0.66-0.64-1.08-0.64h-0.13c-0.43,0-0.86,0.18-1.08,0.64c-0.11,0.2-0.13,0.5-0.13,0.86v2.9
			c0,0.36,0.02,0.66,0.13,0.86c0.22,0.46,0.65,0.64,1.08,0.64H90.3z"/>
		<path class="st2" d="M95.19,21.5v-9h5.46v1.62h-3.71v1.97h3.03v1.62h-3.03v3.79H95.19z"/>
		<path class="st2" d="M102.35,21.5v-9h5.46v1.62h-3.71v1.97h3.03v1.62h-3.03v3.79H102.35z"/>
		<path class="st2" d="M109.5,21.5v-9h5.43v1.62h-3.68v1.96h3.03v1.62h-3.03v2.18h3.68v1.62H109.5z"/>
		<path class="st2" d="M121.07,21.5c-0.23-0.24-0.32-0.68-0.36-1.08L120.59,19c-0.07-0.85-0.48-1.17-1.39-1.17h-0.8v3.67h-1.74v-9
			h2.77c0.41,0,0.77,0.04,1.06,0.1c1.18,0.26,1.93,1.03,1.93,2.29c0,0.91-0.48,1.66-1.37,2.06v0.01c0.78,0.28,1.19,0.78,1.26,1.7
			l0.13,1.61c0.04,0.46,0.17,0.9,0.5,1.15v0.07H121.07z M119.37,16.24c0.83,0,1.28-0.47,1.28-1.13c0-0.49-0.28-0.77-0.72-0.88
			c-0.16-0.04-0.37-0.06-0.61-0.06h-0.92v2.06H119.37z"/>
	</g>
</g>
</svg>
